Coordinates
version=1
nRows=18
nColumns=26
inDegrees=yes

Units are S.I. units (second, meters, Newtons, ...)
Angles are in degrees.

endheader
time	pelvis_tilt	pelvis_list	pelvis_rotation	pelvis_tx	pelvis_ty	pelvis_tz	hip_flexion_r	hip_adduction_r	hip_rotation_r	knee_angle_r	knee_angle_r_beta	ankle_angle_r	subtalar_angle_r	mtp_angle_r	hip_flexion_l	hip_adduction_l	hip_rotation_l	knee_angle_l	knee_angle_l_beta	ankle_angle_l	subtalar_angle_l	mtp_angle_l	lumbar_extension	lumbar_bending	lumbar_rotation
    216.45023590	     -3.82972710	      4.89857600	     -1.35314009	      0.46717800	      0.90852364	      0.25900304	     24.72019821	      3.08196309	      6.47895351	     15.82310759	     15.82310759	      4.63883363	     -3.40804457	      0.00000000	     -0.43704101	      7.73854824	     -0.49938390	     83.17049951	     83.17049951	    -15.92120092	     -8.68482817	      0.00000000	    -12.19015901	     -5.21494808	      4.77943171
    216.46023590	     -4.01757221	      4.79455893	     -1.92923337	      0.46513062	      0.90028573	      0.25884395	     24.89112303	      3.59239637	      6.44714705	     18.60890808	     18.60890808	      0.38200332	     -7.41551318	      0.00000000	      2.60706108	      6.19473230	     -2.21802444	     89.07693873	     89.07693873	    -15.43129183	    -10.85040562	      0.00000000	    -12.28692848	     -5.01606716	      5.90603180
    216.47023590	     -3.92084864	      4.20833943	     -2.49512518	      0.46283948	      0.89174396	      0.25924528	     24.74305967	      4.80994843	      6.41948633	     21.99374385	     21.99374385	     -1.44022877	    -11.55220327	      0.00000000	      5.39159335	      3.96048152	     -3.44087537	     94.73105370	     94.73105370	    -14.17596495	    -12.11732486	      0.00000000	    -12.81634311	     -4.33354759	      7.03407542
    216.48023590	     -4.36314666	      3.34116875	     -2.98664601	      0.45919242	      0.88154624	      0.25979621	     25.83455034	      6.61189434	      6.10288575	     27.53955727	     27.53955727	      3.46484892	    -13.71076521	      0.00000000	      9.17741078	      1.20392776	     -4.16320184	    100.50824666	    100.50824666	    -12.41075522	    -12.59248956	      0.00000000	    -12.93657434	     -3.37663168	      8.07996894
    216.49023590	     -5.02917969	      3.03174108	     -3.39205592	      0.45468341	      0.87038226	      0.25926241	     27.97038543	      7.64543154	      5.81923116	     34.49557447	     34.49557447	      8.26927455	    -14.82908394	      0.00000000	     13.54620758	     -0.61012994	     -4.34073592	    105.87598099	    105.87598099	    -10.53631386	    -12.70076081	      0.00000000	    -12.92293558	     -2.98424181	      8.70585449
    216.50023590	     -5.81963870	      2.66323712	     -3.68461096	      0.44993359	      0.85994354	      0.25878935	     29.99793290	      8.64138277	      6.20615135	     40.78366702	     40.78366702	     10.69252378	    -16.61456280	      0.00000000	     18.29578185	     -2.19507565	     -3.83134634	    110.50401117	    110.50401117	     -9.35224141	    -13.04153438	      0.00000000	    -12.82221821	     -2.58079782	      9.23787726
    216.51023590	     -7.09921217	      2.51761188	     -4.14731439	      0.44530866	      0.85077387	      0.25805470	     31.79971805	      9.28001659	      6.75524682	     45.99300561	     45.99300561	     13.99179876	    -16.07118669	      0.00000000	     23.85819135	     -3.39449385	     -3.19847792	    114.26834677	    114.26834677	     -8.28760999	    -12.88632387	      0.00000000	    -12.09811485	     -2.32820253	     10.03144846
    216.52023590	     -8.54338102	      2.25286221	     -4.84560773	      0.44139528	      0.84313877	      0.25766514	     32.59699354	     10.00132996	      7.28239189	     49.22748113	     49.22748113	     17.27711106	    -14.86118954	      0.00000000	     29.64221018	     -4.80167414	     -2.48188269	    117.07863758	    117.07863758	     -7.21320301	    -12.52473881	      0.00000000	    -11.03494951	     -1.93098818	     11.25809098
    216.53023590	     -9.68677406	      1.65592514	     -5.51337175	      0.43844829	      0.83780718	      0.25774227	     31.91658984	     10.85593010	      7.54090904	     50.44173505	     50.44173505	     20.05517315	    -13.91583032	      0.00000000	     34.98876191	     -6.41564190	     -1.37437912	    118.82227752	    118.82227752	     -5.95961002	    -12.19400497	      0.00000000	    -10.17492358	     -1.23605433	     12.65805900
    216.54023590	     -9.88844950	      1.23645024	     -5.75988069	      0.43717591	      0.83572033	      0.25710347	     29.40070166	     11.23503984	      8.03565790	     50.37620597	     50.37620597	     22.13901465	    -13.79184339	      0.00000000	     38.97145019	     -7.22603005	     -0.25055013	    119.24153158	    119.24153158	     -4.89413001	    -12.91205040	      0.00000000	    -10.19730892	     -0.76583195	     13.65184293
    216.55023590	     -9.56545057	      1.16294876	     -5.46919606	      0.43726496	      0.83602307	      0.25587654	     25.88273190	     10.92647839	      8.43446850	     49.55603791	     49.55603791	     23.63228155	    -13.81962691	      0.00000000	     42.09181226	     -7.11367106	      0.75558436	    118.54319310	    118.54319310	     -3.72174883	    -13.83093490	      0.00000000	    -10.54377362	     -0.73973112	     14.16104046
    216.56023590	     -8.73497848	      1.37373401	     -4.92894196	      0.43848041	      0.83875226	      0.25454186	     21.29463128	     10.12790497	      8.87009901	     47.71577487	     47.71577487	     24.43632925	    -13.69122210	      0.00000000	     44.19045459	     -6.43473682	      1.36172787	    116.77618549	    116.77618549	     -2.97119499	    -14.92616792	      0.00000000	    -11.27967812	     -1.12580641	     14.56462322
    216.57023590	     -8.21634131	      1.91106800	     -4.28839408	      0.44008982	      0.84258992	      0.25336128	     16.77991021	      8.95353157	      9.31299848	     45.15170535	     45.15170535	     24.36116393	    -13.65116195	      0.00000000	     46.23574097	     -5.34212352	      1.53355354	    114.11962160	    114.11962160	     -2.85666283	    -16.40805739	      0.00000000	    -11.49271615	     -1.97314334	     14.94059990
    216.58023590	     -8.08360343	      2.55372315	     -3.57329081	      0.44187209	      0.84745200	      0.25225877	     12.51384335	      7.60814449	      9.52475552	     41.93034402	     41.93034402	     23.03107925	    -13.56843026	      0.00000000	     48.25942170	     -4.11591475	      1.44009911	    110.65617148	    110.65617148	     -3.01808963	    -17.92215810	      0.00000000	    -11.17493360	     -2.97317512	     15.25746590
    216.59023590	     -8.20769866	      3.32596313	     -2.85491706	      0.44410616	      0.85287930	      0.25130556	      8.46523442	      6.19678947	      9.75104001	     38.34403125	     38.34403125	     20.40675629	    -13.77912792	      0.00000000	     50.04020940	     -2.80375432	      1.08885251	    106.46463364	    106.46463364	     -3.81570927	    -19.60213383	      0.00000000	    -10.45156455	     -4.09960375	     15.75862353
    216.60023590	     -8.48069113	      4.27707651	     -2.05550735	      0.44703726	      0.85877323	      0.25024981	      4.63491524	      4.48185845	      9.29241961	     34.58318540	     34.58318540	     16.89796305	    -13.58861214	      0.00000000	     51.43178676	     -1.26713189	      0.58280700	    101.61944451	    101.61944451	     -3.93674354	    -20.16233347	      0.00000000	     -9.47479905	     -5.41543040	     16.15079843
    216.61023590	     -9.20982672	      5.28073041	     -1.12645867	      0.45019902	      0.86461903	      0.24900573	      1.59084968	      2.69214377	      8.06251787	     31.04460870	     31.04460870	     12.57243538	    -12.89154174	      0.00000000	     52.83911573	      0.47243592	      0.16816370	     96.09478360	     96.09478360	     -3.88575444	    -20.04778773	      0.00000000	     -7.94599600	     -6.80067923	     16.29447909
    216.62023590	     -9.66698660	      6.10890965	     -0.34802318	      0.45381708	      0.87116314	      0.24823726	     -1.70372187	      1.22988457	      6.85205879	     27.25282522	     27.25282522	      6.96159703	    -12.28329451	      0.00000000	     53.39774210	      1.91771735	     -0.23770501	     89.91089851	     89.91089851	     -3.83613812	    -20.04861897	      0.00000000	     -6.75761612	     -8.06416462	     16.65202783
